<?xml version="1.0" encoding="utf-8"?>
<!-- Generator: Adobe Illustrator 25.4.1, SVG Export Plug-In . SVG Version: 6.00 Build 0)  -->
<svg version="1.1" id="Layer_1" xmlns="http://www.w3.org/2000/svg" xmlns:xlink="http://www.w3.org/1999/xlink" x="0px" y="0px"
	 viewBox="0 0 169.92 169.92" enable-background="new 0 0 169.92 169.92" xml:space="preserve">
<g>
	<path fill="#A90533" d="M84.939,1.882c-46.482,0-84.303,37.249-84.303,83.005c0,45.75,37.821,82.995,84.303,82.995
		c46.5,0,84.318-37.245,84.318-82.995C169.258,39.131,131.439,1.882,84.939,1.882z M84.939,159.02
		c-41.573,0-75.299-33.202-75.299-74.133c0-40.927,33.727-74.127,75.299-74.127c41.594,0,75.316,33.2,75.316,74.127
		C160.256,125.817,126.533,159.02,84.939,159.02z"/>
	<path fill="#DFC9A0" d="M84.947,7.919c43.195,0,78.209,34.461,78.209,76.968c0,42.517-35.014,76.966-78.209,76.966
		c-43.191,0-78.207-34.448-78.207-76.966C6.74,42.38,41.756,7.919,84.947,7.919z"/>
	<path fill="#A90533" d="M145.425,119.266c-4.373-5.527-6.836-12.353-6.836-19.438c0-1.814,0.145-3.623,0.475-5.45
		c0.008,0,0.027-0.11,0.027-0.11c1.617-8.968,7.068-16.601,14.65-21.284c-8.766-1.859-16.539-7.2-21.203-15.146
		c-2.877-4.904-4.293-10.362-4.293-15.813c0-3.276,0.521-6.538,1.529-9.675c-7.898,4.084-17.328,4.848-26.057,1.739
		c-8.685-3.128-15.378-9.733-18.758-17.901c-3.374,8.169-10.091,14.778-18.831,17.925c-8.664,3.101-18.072,2.321-25.973-1.763
		c1.008,3.137,1.528,6.373,1.528,9.648c0,5.466-1.436,10.975-4.325,15.943c-4.646,7.876-12.427,13.195-21.181,15.048
		c7.504,4.641,12.932,12.164,14.624,21.05c0,0,0.097,0.611,0.103,0.645c0.287,1.709,0.431,3.424,0.431,5.145
		c0,7.085-2.463,13.922-6.827,19.438c8.84-1.19,17.974,1.241,25.049,7.029l0.25,0.218c0,0,0.17,0.144,0.259,0.216
		c6.813,5.83,10.679,14.155,11.016,22.795c6.015-6.528,14.61-10.487,23.934-10.504c9.233,0,17.807,3.947,23.83,10.48
		c0.336-8.799,4.352-17.265,11.488-23.167C127.422,120.512,136.566,118.075,145.425,119.266z"/>
	<path fill="#DFC9A0" d="M85.008,34.256c28.406,0,51.438,22.663,51.438,50.63c0,27.966-23.031,50.632-51.438,50.632
		c-28.413,0-51.438-22.666-51.438-50.632C33.57,56.919,56.594,34.256,85.008,34.256z"/>
	<g>
		<g>
			<g>
				<g>
					<path fill="#005261" d="M28.654,98.342c0-0.39-0.084-0.763-0.103-1.164c-7.178,7.091-11.789,15.463-11.789,21.425
						c0,0.997,0.167,1.869,0.43,2.694C23.972,116.145,28.654,106.78,28.654,98.342z M18.946,124.04
						c4.297,4.481,15.668,5.547,27.084,2.6C38.538,121.909,27.185,120.792,18.946,124.04z M123.908,126.634
						c11.42,2.953,22.785,1.888,27.096-2.598C142.761,120.792,131.406,121.909,123.908,126.634z M141.287,98.324
						c0,8.456,4.674,17.82,11.459,22.996c0.258-0.813,0.43-1.721,0.43-2.7c0-5.967-4.609-14.361-11.795-21.432
						C141.363,97.566,141.287,97.93,141.287,98.324z M102.218,30.573C99.093,19.109,92.467,9.705,86.508,8.264
						C87.75,17.191,94.42,26.584,102.218,30.573z M67.73,30.573c7.791-3.988,14.461-13.389,15.703-22.309
						C77.482,9.705,70.847,19.109,67.73,30.573z M49.762,134.271c0,9.982,2.958,18.758,7.479,21.77
						c0.361-1.716,0.715-3.424,0.715-5.242c0-7.526-3.081-15.541-7.921-20.719C49.929,131.477,49.762,132.898,49.762,134.271z
						 M142.279,92.246c11.01-5.021,19.146-12.922,19.498-18.962C153.105,75.986,144.9,84.049,142.279,92.246z M62.935,32.28
						c-9.612-6.557-20.609-9.303-26.176-6.557C43.38,31.579,54.212,34.272,62.935,32.28z M38.502,43.301
						c0-5.635-1.489-11.292-4.243-15.639c-1.589,2.069-2.421,5.208-2.421,9.018c0,5.224,1.54,11.561,4.367,17.628
						C37.607,50.974,38.502,47.24,38.502,43.301z M60.228,157.095c6.102,0.738,15.379-5.651,22.259-15.38
						C73.734,142.794,64.457,149.163,60.228,157.095z M161.207,70.364c-2.406-5.625-13.002-10.526-25.057-11.569
						C141.502,65.75,152.101,70.702,161.207,70.364z M8.162,73.284c0.332,6.025,8.48,13.946,19.501,18.966
						C25.036,84.035,16.834,75.986,8.162,73.284z M111.976,150.764c0,1.854,0.35,3.561,0.719,5.277
						c4.521-3.012,7.486-11.787,7.486-21.742c0-1.393-0.168-2.822-0.293-4.219C115.045,135.258,111.976,143.273,111.976,150.764z
						 M133.189,25.723c-5.592-2.75-16.57,0-26.172,6.551C115.644,34.225,126.636,31.487,133.189,25.723z M33.8,58.803
						c-12.043,1.036-22.653,5.926-25.06,11.557C17.837,70.687,28.424,65.75,33.8,58.803z M87.437,141.715
						c6.886,9.729,16.168,16.118,22.266,15.38C105.482,149.156,96.183,142.765,87.437,141.715z M133.752,54.308
						c2.811-6.067,4.359-12.388,4.359-17.609c0-3.813-0.84-6.956-2.43-9.009c-2.75,4.333-4.242,9.997-4.242,15.625
						C131.439,47.24,132.332,50.986,133.752,54.308z"/>
				</g>
			</g>
			<g>
				<path fill="#005261" d="M64.412,62.436c-8.235-2.383-16.454-3.393-23.777-3.176l0,0c3.446,6.593,8.497,13.348,14.83,19.404
					l24.116,3.125L64.412,62.436z"/>
				<path fill="#005261" d="M54.577,80.701c-7.887,3.391-14.864,7.821-20.368,12.631v0.012c6.942,2.849,15.21,4.831,24.005,5.47
					L78.83,85.915L54.577,80.701z"/>
				<path fill="#005261" d="M58.896,100.917c-3.833,7.599-6.297,15.421-7.342,22.59c0,0,0,0.004,0.005,0.004
					c7.187-2.214,14.865-5.942,22.033-11.059l7.38-22.922L58.896,100.917z"/>
				<path fill="#005261" d="M115.326,78.511c6.103-5.769,11.023-12.187,14.461-18.472V60.03c-7.608-0.365-16.215,0.587-24.812,3.028
					L90.334,81.802L115.326,78.511z"/>
				<path fill="#005261" d="M103.996,60.866c0.926-8.308,0.486-16.346-0.969-23.346l-0.008-0.007
					c-6.049,4.531-11.986,10.661-16.971,17.934l1.045,23.658L103.996,60.866z"/>
				<path fill="#005261" d="M83.864,54.575c-4.736-6.979-10.322-12.908-16.05-17.361c0,0,0,0-0.006,0
					c-1.662,7.259-2.207,15.653-1.316,24.322l16.363,17.583L83.864,54.575z"/>
				<path fill="#005261" d="M135.599,94.211c-5.615-5.106-12.828-9.813-21.023-13.375l-23.481,5.087l21.308,13.315
					c8.467-0.562,16.443-2.391,23.193-5.021v-0.006H135.599z"/>
				<path fill="#005261" d="M96.57,113.146c6.879,4.988,14.219,8.679,21.158,10.944l0,0c-0.875-6.63-6.035-19.822-7.59-23.685
					l-21.176-10.87L96.57,113.146z"/>
				<path fill="#005261" d="M75.437,113.759c2.009,8.233,5.241,15.742,9.087,21.883h0.003c4.102-6.284,7.556-14.016,9.703-22.518
					l-9.266-22.162L75.437,113.759z"/>
			</g>
		</g>
	</g>
	<g>
		<g>
			<path fill="#A90533" d="M28.615,84.887c0,30.61,25.297,55.508,56.395,55.508c31.085,0,56.382-24.898,56.382-55.508
				c0-30.607-25.297-55.51-56.382-55.51C53.914,29.376,28.615,54.28,28.615,84.887z M30.987,84.887
				c0-29.325,24.225-53.177,54.024-53.177c29.784,0,54.026,23.852,54.026,53.177c0,29.331-24.242,53.191-54.026,53.191
				C55.212,138.068,30.987,114.218,30.987,84.887z"/>
			<path fill="#A90533" d="M96.603,84.859c0,6.342-5.212,11.457-11.639,11.457c-6.402,0-11.619-5.115-11.619-11.457
				c0-6.32,5.216-11.433,11.619-11.433C91.391,73.426,96.603,78.539,96.603,84.859z"/>
		</g>
	</g>
	<path fill="#DFC9A0" d="M72.774,84.87c0,6.637,5.479,12.04,12.214,12.04c6.738,0,12.219-5.403,12.219-12.04
		c0-6.623-5.48-12.014-12.219-12.014C78.253,72.856,72.774,78.247,72.774,84.87z M73.956,84.87c0-5.988,4.948-10.856,11.032-10.856
		c6.084,0,11.051,4.868,11.051,10.856c0,6.002-4.961,10.881-11.051,10.881C78.904,95.751,73.956,90.872,73.956,84.87z"/>
</g>
</svg>
