<?xml version="1.0" encoding="utf-8"?>
<!-- Generator: Adobe Illustrator 26.0.1, SVG Export Plug-In . SVG Version: 6.00 Build 0)  -->
<svg version="1.1" id="Layer_1" xmlns="http://www.w3.org/2000/svg" xmlns:xlink="http://www.w3.org/1999/xlink" x="0px" y="0px"
	 viewBox="0 0 59.1 81.5" style="enable-background:new 0 0 59.1 81.5;" xml:space="preserve">
<g>
	<g>
		<g>
			<path fill="#767674" d="M17.4,32.8V20c0-4.7,3.8-8.6,8.6-8.6s8.6,3.8,8.6,8.6v12.8c4.1-2.8,6.9-7.5,6.9-12.8c0-8.5-6.9-15.4-15.4-15.4
				S10.5,11.5,10.5,20C10.5,25.4,13.3,30.1,17.4,32.8z M51.1,48.7L35.6,41c-0.6-0.2-1.2-0.4-1.9-0.4h-2.6V20c0-2.8-2.3-5.1-5.1-5.1
				s-5.1,2.3-5.1,5.1v36.8C8.5,54.2,8.7,54.3,8.2,54.3c-1.1,0-2,0.4-2.7,1.1l-2.7,2.7L19.7,75c0.9,0.9,2.2,1.5,3.6,1.5h23.3
				c2.6,0,4.6-1.9,4.9-4.4L54.1,54c0-0.2,0.1-0.5,0.1-0.7C54.3,51.3,53,49.5,51.1,48.7z"/>
		</g>
	</g>
</g>
</svg>
